<svg width="1024" height="493" viewBox="0 0 1024 493" fill="none" xmlns="http://www.w3.org/2000/svg">
<path d="M770.38 114.603C783.436 115.408 796.292 117.756 808.608 121.748L809.004 121.876L808.949 122.29C807.342 134.29 808.471 145.25 810.765 153.86C813.066 162.496 816.518 168.69 819.488 171.236C823.088 174.321 830.859 177.11 841.246 177.143C851.609 177.175 864.522 174.462 878.357 166.615L878.681 166.43L878.951 166.689C890.748 178.05 901.453 190.647 910.841 204.1L911.033 204.374L910.851 204.656C904.573 214.418 901.671 224.894 903.347 234.114C905.878 248.032 919.445 256.577 938.569 258.632L939.484 258.726L939.794 258.755L939.905 259.047C946.532 276.635 950.964 294.738 952.84 312.749C956.485 347.738 951.94 372.426 941.671 389.204C931.391 406.001 915.42 414.798 896.39 418.092C862.682 423.926 837.019 402.817 820.017 388.853C817.781 387.016 815.696 385.304 813.759 383.788C812.657 382.926 811.561 382.053 810.465 381.181C802.672 374.979 794.848 368.759 783.991 365.253C773.143 361.75 759.215 360.943 739.223 365.687C717.76 370.78 703.245 371.914 693.442 368.122C683.556 364.298 678.586 355.528 676.028 341.273C674.072 330.376 676.145 322.915 680.449 317.104C684.725 311.33 691.178 307.227 697.845 302.98C702.079 300.282 706.412 297.522 710.407 294.222C718.707 287.365 727.569 275.614 732.36 262.055C737.148 248.503 737.854 233.196 729.939 219.165C722.025 205.137 709.26 198.29 694.541 195.852C679.807 193.411 663.142 195.397 647.523 199.03C632.01 202.637 620.678 211.643 614.655 224.05C608.628 236.463 607.889 252.336 613.679 269.705C619.033 285.768 627.319 305.229 634.852 322.923C639.263 333.283 643.415 343.038 646.564 351.136C649.704 359.212 651.872 365.706 652.273 369.515C652.454 371.237 652.674 372.962 652.891 374.681C653.108 376.398 653.321 378.11 653.487 379.794C653.819 383.161 653.966 386.448 653.568 389.515C653.169 392.587 652.223 395.452 650.361 397.964C648.498 400.477 645.742 402.604 641.778 404.235C624.13 411.495 607.394 409.296 593.522 399.665C579.669 390.048 568.714 373.051 562.507 350.78C557.356 332.296 558.733 307.108 565.91 280.143C573.089 253.167 586.084 224.361 604.225 198.624L604.405 198.371L604.71 198.418C615.319 200.065 626.086 198.777 635.504 193.021C650.248 184.01 651.905 167.706 648.381 152.415L648.308 152.098L648.568 151.903C658.679 144.311 669.571 137.78 680.966 132.391L681.333 132.217L681.579 132.541C694.026 149.005 710.946 159.791 730.292 156.567C742.632 154.51 751.551 149.349 757.867 142.112C764.189 134.867 767.934 125.507 769.858 115.012L769.938 114.575L770.38 114.603ZM878.124 210.687C875.247 210.863 872.049 213.001 868.746 216.857C865.453 220.7 862.132 226.16 859.004 232.779C852.75 246.012 847.304 263.796 844.4 282.313C841.499 300.805 842.958 320.351 849.638 335.156C856.307 349.936 868.155 359.965 886.106 359.606C900.552 359.317 909.525 354.626 914.61 349.791C917.156 347.37 918.728 344.912 919.529 342.948C919.93 341.965 920.131 341.121 920.173 340.478C920.218 339.802 920.081 339.468 919.967 339.355C919.958 339.349 919.926 339.329 919.857 339.303C919.763 339.268 919.631 339.232 919.455 339.198C919.1 339.129 918.617 339.078 918.01 339.039C916.798 338.962 915.161 338.938 913.212 338.91C906.618 338.816 896.557 338.675 888.291 336.129C884.155 334.855 880.421 332.965 877.794 330.135C875.153 327.289 873.665 323.526 873.973 318.592C874.617 308.291 878.513 302.94 883.595 300.178C888.618 297.449 894.714 297.304 899.609 297.18C901.038 297.144 902.362 297.111 903.544 297.02C905.896 296.839 907.916 296.569 909.566 296.19C911.223 295.809 912.47 295.327 913.303 294.743C914.122 294.17 914.509 293.525 914.545 292.786C914.583 292.016 914.246 291.036 913.365 289.803C912.798 289.01 911.647 288.323 910 287.671C908.373 287.026 906.361 286.452 904.171 285.826C900.325 284.728 895.947 283.479 892.416 281.44C888.871 279.391 886.108 276.501 885.62 272.102C885.211 268.426 885.593 262.021 886.024 254.755C886.59 245.205 887.248 234.099 886.39 225.381C885.961 221.018 885.156 217.308 883.805 214.702C882.467 212.123 880.636 210.692 878.124 210.687ZM824.668 244.008C815.003 235.908 801.045 231.515 784.934 232.247C752.55 233.72 731.647 263.886 734.243 299.01C735.542 316.596 742.327 328.906 751.197 337.183C760.058 345.451 770.974 349.671 780.514 351.139C790.05 352.606 800.327 351.692 808.514 348.565C816.689 345.442 822.893 340.059 824.023 332.525L824.034 332.452L824.023 332.38C823.793 330.771 822.777 329.592 821.309 328.74C819.852 327.896 817.91 327.345 815.717 326.979C811.329 326.246 805.753 326.223 800.599 326.2C796.443 326.182 792.569 326.165 789.734 325.793C788.312 325.607 787.202 325.337 786.46 324.962C785.728 324.592 785.456 324.18 785.456 323.717C785.457 317.521 791.702 308.199 808.994 307.479C813.353 307.297 817.255 307.114 820.671 306.504C824.094 305.893 827.068 304.848 829.565 302.916C834.566 299.047 837.488 291.757 838.581 277.907C839.686 263.918 834.343 252.117 824.668 244.008ZM787.839 261.5C790.137 260.313 792.692 259.96 795.568 261.532C796.255 262.232 797.206 263.468 797.854 264.934C798.518 266.437 798.838 268.121 798.31 269.704C797.611 271.802 795.474 275.377 792.7 278.152C789.898 280.954 786.64 282.753 783.66 281.76C780.624 280.748 779.07 278.046 778.721 275.08C778.37 272.096 779.26 268.988 780.944 267.305C781.167 267.082 781.396 266.851 781.628 266.615C783.432 264.791 785.489 262.715 787.839 261.5ZM687.437 226.425C691.335 226.425 694.202 227.507 696.097 229.33C697.992 231.154 698.853 233.661 698.853 236.386C698.853 239.777 697.719 242.468 695.687 244.307C693.662 246.139 690.801 247.074 687.437 247.074C684.134 247.074 680.974 246.709 678.439 245.77C675.901 244.83 673.928 243.289 673.135 240.91C672.539 239.122 671.955 235.507 673.645 232.311C675.363 229.062 679.325 226.425 687.437 226.425Z" fill="#6EAEB8"/>
<path d="M959.62 171.615C994.553 165.065 1018.57 174.526 1023.66 198.542C1025.1 203.636 1023.66 241.48 983.636 253.852C967.735 258.767 952.408 260.466 939.435 259.224C932.22 240.075 922.397 221.533 910.43 204.386C920.292 189.054 938.335 175.606 959.62 171.615ZM550.616 99.5663C580.454 71.1836 624.12 108.299 635.764 123.582C640.733 130.103 646.231 140.864 648.867 152.303C642.191 157.315 635.856 162.79 629.942 168.704C620.644 178.003 612.191 188.191 604.634 198.913C585.957 196.014 567.876 184.109 558.621 171.615C544.066 151.965 530.967 122.855 550.616 99.5663ZM832.261 72.6385C870.104 31.156 904.31 31.8834 924.687 48.6219C936.332 55.6854 949.431 94.472 910.132 140.321C899.563 152.651 888.836 161.244 878.602 167.049C865.598 154.525 851.263 143.505 835.9 134.499C827.182 129.388 817.98 125.312 808.453 122.224C810.558 106.499 817.332 89.0021 832.261 72.6385ZM699.807 0.589722C750.023 -6.68792 770.401 55.1723 771.856 87.9218C772.275 97.3412 771.911 106.58 770.348 115.101C740.324 113.25 709.221 119.58 681.18 132.843C671.405 119.914 664.429 103.568 661.236 87.9218C653.959 52.2614 664.147 10.0508 699.807 0.589722Z" fill="#6EAEB8"/>
<path d="M910.841 204.099C922.83 221.279 932.674 239.858 939.904 259.046L940.187 259.797L939.388 259.72C919.627 257.827 905.056 249.103 902.363 234.292C900.627 224.746 903.644 214.013 910.01 204.115L910.414 203.487L910.841 204.099ZM649.356 152.19C652.917 167.64 651.323 184.525 636.026 193.874C626.362 199.779 615.343 201.08 604.557 199.406L603.761 199.283L604.226 198.624C611.799 187.881 620.269 177.67 629.59 168.35C635.52 162.419 641.874 156.929 648.568 151.903L649.183 151.441L649.356 152.19ZM808.607 121.747C818.167 124.846 827.402 128.936 836.153 134.066C851.552 143.093 865.919 154.138 878.95 166.688L879.432 167.152L878.849 167.483C864.866 175.414 851.782 178.175 841.242 178.142C830.725 178.109 822.684 175.292 818.836 171.994C815.636 169.25 812.117 162.818 809.799 154.116C807.473 145.386 806.333 134.294 807.958 122.156L808.037 121.562L808.607 121.747ZM680.966 132.389C709.079 119.093 740.266 112.745 770.38 114.602L770.942 114.636L770.841 115.191C768.895 125.801 765.095 135.347 758.619 142.768C752.136 150.196 743.002 155.46 730.457 157.551C710.591 160.862 693.342 149.757 680.781 133.143L680.41 132.652L680.966 132.389Z" fill="#4B99A6"/>
<path d="M450.35 118.434C465.701 118.434 477.769 120.268 486.554 123.935C495.338 127.517 501.521 133.231 505.103 141.078C508.77 148.924 510.604 159.328 510.604 172.291C510.604 180.479 510.561 187.43 510.476 193.144C510.476 198.858 510.433 205.211 510.348 212.205C510.348 218.771 511.414 225.637 513.546 232.801C515.763 239.88 516.872 244.443 516.872 246.49C516.872 250.072 515.166 253.355 511.755 256.34C508.429 259.24 504.633 260.69 500.369 260.69C496.787 260.69 493.248 259.026 489.752 255.701C486.255 252.289 482.545 247.385 478.622 240.989C470.179 247.556 461.991 252.502 454.06 255.829C446.214 259.069 437.387 260.69 427.579 260.69C418.624 260.69 410.735 258.941 403.912 255.445C397.175 251.863 391.973 247.044 388.306 240.989C384.638 234.933 382.805 228.366 382.805 221.288C382.805 211.736 385.832 203.591 391.887 196.854C397.942 190.116 406.258 185.596 416.833 183.293C419.05 182.782 424.552 181.63 433.336 179.839C442.12 178.048 449.625 176.428 455.851 174.978C462.162 173.443 468.985 171.609 476.319 169.477C475.893 160.266 474.016 153.529 470.69 149.265C467.45 144.916 460.669 142.741 450.35 142.741C441.48 142.741 434.786 143.977 430.266 146.451C425.831 148.924 421.993 152.633 418.752 157.58C415.596 162.526 413.336 165.81 411.972 167.43C410.692 168.965 407.878 169.733 403.528 169.733C399.605 169.733 396.194 168.496 393.294 166.023C390.48 163.464 389.073 160.223 389.073 156.3C389.073 150.16 391.247 144.19 395.597 138.391C399.946 132.592 406.727 127.815 415.938 124.063C425.148 120.31 436.619 118.434 450.35 118.434ZM67.5459 118.434C82.897 118.434 94.9647 120.268 103.749 123.935C112.533 127.517 118.717 133.231 122.299 141.078C125.966 148.924 127.8 159.328 127.8 172.291C127.8 180.479 127.757 187.43 127.672 193.144C127.672 198.858 127.629 205.211 127.544 212.205C127.544 218.771 128.61 225.637 130.742 232.801C132.96 239.88 134.068 244.443 134.068 246.49C134.068 250.072 132.362 253.355 128.951 256.34C125.625 259.24 121.83 260.689 117.565 260.689C113.984 260.689 110.444 259.027 106.947 255.701C103.451 252.289 99.7405 247.385 95.8174 240.989C87.3743 247.556 79.1873 252.502 71.2559 255.829C63.4096 259.069 54.5822 260.689 44.7744 260.689C35.8198 260.689 27.931 258.941 21.1084 255.445C14.3709 251.863 9.16822 247.044 5.50098 240.989C1.83372 234.933 0 228.366 0 221.288C4.14431e-05 211.736 3.02789 203.591 9.08301 196.854C15.1382 190.117 23.4532 185.596 34.0283 183.293C36.2457 182.782 41.747 181.63 50.5312 179.839C59.3156 178.048 66.8211 176.428 73.0469 174.978C79.3578 173.443 86.1804 171.609 93.5146 169.477C93.0882 160.266 91.2118 153.529 87.8857 149.265C84.6449 144.916 77.8653 142.741 67.5459 142.741C58.6763 142.741 51.981 143.977 47.4609 146.451C43.0263 148.924 39.188 152.633 35.9473 157.58C32.7917 162.526 30.5316 165.81 29.167 167.43C27.8877 168.965 25.0738 169.733 20.7246 169.733C16.8015 169.733 13.3899 168.496 10.4902 166.023C7.67583 163.464 6.26855 160.223 6.26855 156.3C6.26864 150.16 8.44356 144.19 12.793 138.391C17.1424 132.592 23.9222 127.815 33.1328 124.063C42.3436 120.31 53.815 118.434 67.5459 118.434ZM154.434 66.7514C159.721 66.7514 163.986 68.5425 167.227 72.1245C170.467 75.6211 172.088 80.9091 172.088 87.9877V239.454C172.088 246.532 170.425 251.863 167.099 255.445C163.858 258.941 159.636 260.689 154.434 260.689C149.317 260.689 145.138 258.856 141.897 255.189C138.742 251.522 137.164 246.276 137.164 239.454V87.9877C137.164 80.9944 138.699 75.7064 141.77 72.1245C144.925 68.5427 149.146 66.7515 154.434 66.7514ZM331.915 93.0161C348.041 93.0161 383.959 110.44 383.959 156.902C383.959 203.364 318.722 269.428 302.596 255.634C293.8 245.471 301.129 230.225 314.323 222.24C327.517 214.254 363.435 183.037 358.304 155.45C353.173 127.863 334.848 124.959 324.586 125.685C314.324 126.411 301.862 132.219 299.663 148.19C297.782 161.855 293.754 170.734 282.071 173.015C270.389 170.734 266.361 161.854 264.479 148.19C262.28 132.219 249.819 126.411 239.558 125.685C229.296 124.959 210.971 127.863 205.84 155.45C200.709 183.037 236.625 214.254 249.819 222.24C263.013 230.225 270.343 245.471 261.548 255.634C245.422 269.428 180.185 203.364 180.185 156.902C180.185 110.44 216.102 93.0161 232.228 93.0161C248.353 93.0161 254.95 95.9204 267.411 105.358C273.403 109.896 278.46 111.862 282.071 112.552C285.682 111.862 290.739 109.896 296.731 105.358C309.192 95.9203 315.789 93.0161 331.915 93.0161ZM93.5146 190.457C88.3976 192.334 80.9354 194.338 71.1279 196.47C61.4054 198.517 54.6676 200.052 50.915 201.076C47.1626 202.014 43.5803 203.932 40.1689 206.831C36.7576 209.646 35.0518 213.612 35.0518 218.729C35.0518 224.017 37.0561 228.537 41.0645 232.289C45.0728 235.957 50.3181 237.79 56.7998 237.79C63.7079 237.79 70.062 236.298 75.8613 233.313C81.7458 230.243 86.0522 226.319 88.7812 221.543C91.9368 216.256 93.5146 207.557 93.5146 195.447V190.457ZM476.319 190.457C471.202 192.334 463.739 194.338 453.932 196.47C444.21 198.517 437.472 200.052 433.72 201.076C429.967 202.014 426.385 203.932 422.974 206.831C419.562 209.646 417.857 213.612 417.856 218.729C417.856 224.017 419.861 228.537 423.869 232.289C427.878 235.957 433.123 237.79 439.604 237.79C446.512 237.79 452.866 236.298 458.665 233.313C464.55 230.243 468.857 226.319 471.586 221.543C474.741 216.256 476.319 207.557 476.319 195.447V190.457Z" fill="#5EA3AE"/>
<path d="M28.2151 291.19V294.474C32.9911 288.172 38.1982 283.562 43.8365 280.643C49.5411 277.658 56.0748 276.166 63.4378 276.166C70.6017 276.166 77.0028 277.725 82.6411 280.842C88.2794 283.96 92.4915 288.371 95.2775 294.076C97.0685 297.392 98.2293 300.974 98.76 304.822C99.2906 308.669 99.556 313.577 99.556 319.547V370.093C99.556 375.532 98.2956 379.645 95.775 382.431C93.3207 385.217 90.1035 386.61 86.1236 386.61C82.0773 386.61 78.7938 385.184 76.2732 382.331C73.7525 379.479 72.4922 375.4 72.4922 370.093V324.821C72.4922 315.866 71.2319 309.034 68.7112 304.324C66.2569 299.548 61.3151 297.16 53.8859 297.16C49.0436 297.16 44.6325 298.619 40.6525 301.538C36.6725 304.39 33.7539 308.337 31.8966 313.378C30.5699 317.425 29.9066 324.987 29.9066 336.064V370.093C29.9066 375.599 28.6131 379.744 26.0261 382.53C23.5055 385.25 20.222 386.61 16.1757 386.61C12.2621 386.61 9.04494 385.184 6.5243 382.331C4.00365 379.479 2.74333 375.4 2.74333 370.093V291.588C2.74333 286.414 3.87099 282.567 6.1263 280.046C8.38161 277.459 11.4661 276.166 15.3797 276.166C17.7677 276.166 19.9235 276.73 21.8472 277.857C23.7708 278.985 25.2965 280.676 26.4241 282.932C27.6181 285.187 28.2151 287.94 28.2151 291.19Z" fill="#F2973E"/>
<path d="M174.996 371.287C168.429 376.395 162.061 380.242 155.892 382.829C149.79 385.349 142.924 386.61 135.296 386.61C128.331 386.61 122.195 385.25 116.889 382.53C111.648 379.744 107.602 375.997 104.75 371.287C101.898 366.577 100.471 361.47 100.471 355.964C100.471 348.535 102.826 342.2 107.536 336.96C112.245 331.719 118.713 328.204 126.938 326.413C128.663 326.015 132.941 325.119 139.773 323.726C146.606 322.333 152.443 321.073 157.285 319.945C162.194 318.751 167.501 317.325 173.205 315.667C172.874 308.503 171.414 303.263 168.827 299.946C166.307 296.563 161.033 294.872 153.007 294.872C146.108 294.872 140.901 295.833 137.386 297.757C133.936 299.681 130.951 302.566 128.431 306.413C125.976 310.261 124.218 312.815 123.157 314.075C122.162 315.269 119.973 315.866 116.59 315.866C113.539 315.866 110.886 314.904 108.63 312.98C106.441 310.99 105.347 308.47 105.347 305.419C105.347 300.643 107.038 295.999 110.421 291.489C113.804 286.978 119.078 283.263 126.242 280.345C133.406 277.426 142.327 275.967 153.007 275.967C164.947 275.967 174.333 277.393 181.165 280.245C187.997 283.031 192.807 287.475 195.592 293.578C198.445 299.681 199.871 307.773 199.871 317.856C199.871 324.224 199.838 329.63 199.771 334.074C199.771 338.519 199.738 343.46 199.672 348.9C199.672 354.007 200.501 359.347 202.159 364.919C203.884 370.425 204.746 373.973 204.746 375.565C204.746 378.351 203.42 380.905 200.766 383.227C198.179 385.482 195.228 386.61 191.911 386.61C189.125 386.61 186.372 385.316 183.653 382.729C180.933 380.076 178.047 376.262 174.996 371.287ZM173.205 331.985C169.225 333.444 163.421 335.003 155.793 336.661C148.231 338.253 142.991 339.447 140.072 340.243C137.153 340.973 134.367 342.465 131.714 344.721C129.061 346.91 127.734 349.994 127.734 353.974C127.734 358.087 129.293 361.602 132.411 364.521C135.528 367.373 139.608 368.799 144.649 368.799C150.022 368.799 154.964 367.639 159.474 365.317C164.051 362.929 167.401 359.878 169.524 356.163C171.978 352.05 173.205 345.284 173.205 335.865V331.985Z" fill="#F2973E"/>
<path d="M294.241 370.541C297.475 372.73 301.007 374.869 304.838 376.958C308.668 378.998 311.205 380.64 312.449 381.884C313.693 383.078 314.315 384.794 314.315 387.033C314.315 388.625 313.569 390.217 312.076 391.809C310.633 393.401 308.867 394.197 306.778 394.197C305.086 394.197 303.022 393.649 300.584 392.555C298.196 391.46 295.36 389.868 292.077 387.779C288.843 385.689 285.286 383.252 281.405 380.466C274.192 384.147 265.336 385.988 254.839 385.988C246.332 385.988 238.695 384.645 231.93 381.958C225.213 379.222 219.567 375.317 214.99 370.242C210.413 365.118 206.955 359.049 204.617 352.034C202.329 345.019 201.184 337.383 201.184 329.124C201.184 320.716 202.378 313.005 204.766 305.991C207.204 298.976 210.711 293.006 215.288 288.081C219.865 283.156 225.437 279.399 232.004 276.813C238.571 274.176 246.034 272.857 254.391 272.857C265.734 272.857 275.46 275.171 283.57 279.797C291.729 284.374 297.897 290.917 302.076 299.424C306.255 307.881 308.345 317.831 308.345 329.273C308.345 346.636 303.644 360.392 294.241 370.541ZM276.853 358.452C279.938 354.919 282.201 350.74 283.644 345.915C285.137 341.089 285.883 335.492 285.883 329.124C285.883 321.114 284.589 314.174 282.002 308.304C279.416 302.434 275.709 298.006 270.883 295.021C266.107 291.986 260.61 290.469 254.391 290.469C249.964 290.469 245.859 291.315 242.078 293.006C238.347 294.648 235.114 297.061 232.377 300.245C229.691 303.429 227.552 307.508 225.96 312.483C224.417 317.408 223.646 322.955 223.646 329.124C223.646 341.711 226.581 351.412 232.452 358.228C238.322 364.994 245.735 368.377 254.69 368.377C258.371 368.377 262.152 367.605 266.033 366.063C263.695 364.322 260.759 362.581 257.227 360.84C253.745 359.098 251.357 357.755 250.063 356.81C248.77 355.865 248.123 354.521 248.123 352.78C248.123 351.288 248.745 349.969 249.989 348.825C251.232 347.681 252.6 347.109 254.093 347.109C258.62 347.109 266.207 350.89 276.853 358.452Z" fill="#F2973E"/>
<path d="M383.457 371.287V367.804C380.206 371.917 376.79 375.366 373.208 378.152C369.626 380.938 365.713 382.995 361.467 384.321C357.222 385.714 352.38 386.411 346.941 386.411C340.374 386.411 334.47 385.051 329.23 382.331C324.056 379.612 320.043 375.864 317.19 371.088C313.807 365.317 312.116 357.025 312.116 346.213V292.384C312.116 286.945 313.343 282.899 315.797 280.245C318.252 277.526 321.502 276.166 325.548 276.166C329.661 276.166 332.978 277.526 335.498 280.245C338.019 282.965 339.279 287.011 339.279 292.384V335.865C339.279 342.167 339.81 347.473 340.871 351.785C341.932 356.03 343.823 359.38 346.543 361.834C349.329 364.222 353.076 365.416 357.786 365.416C362.363 365.416 366.675 364.057 370.721 361.337C374.767 358.617 377.719 355.069 379.576 350.691C381.102 346.843 381.865 338.419 381.865 325.418V292.384C381.865 287.011 383.125 282.965 385.646 280.245C388.166 277.526 391.45 276.166 395.496 276.166C399.542 276.166 402.793 277.526 405.247 280.245C407.701 282.899 408.929 286.945 408.929 292.384V371.088C408.929 376.262 407.735 380.142 405.347 382.729C403.025 385.316 400.007 386.61 396.292 386.61C392.577 386.61 389.493 385.283 387.039 382.63C384.651 379.91 383.457 376.129 383.457 371.287Z" fill="#F2973E"/>
<path d="M491.533 338.054H438.4C438.466 344.223 439.694 349.662 442.082 354.372C444.536 359.082 447.753 362.63 451.733 365.018C455.779 367.406 460.224 368.6 465.066 368.6C468.316 368.6 471.268 368.236 473.921 367.506C476.641 366.71 479.261 365.516 481.782 363.924C484.302 362.266 486.624 360.508 488.747 358.651C490.869 356.793 493.622 354.273 497.005 351.089C498.398 349.895 500.388 349.298 502.975 349.298C505.761 349.298 508.016 350.06 509.741 351.586C511.466 353.112 512.328 355.268 512.328 358.054C512.328 360.508 511.366 363.393 509.442 366.71C507.519 369.96 504.6 373.111 500.687 376.162C496.839 379.147 491.964 381.635 486.06 383.625C480.223 385.615 473.49 386.61 465.862 386.61C448.416 386.61 434.851 381.635 425.167 371.685C415.482 361.735 410.64 348.236 410.64 331.189C410.64 323.163 411.834 315.733 414.222 308.901C416.61 302.002 420.092 296.099 424.669 291.19C429.246 286.282 434.885 282.534 441.584 279.947C448.284 277.293 455.713 275.967 463.872 275.967C474.485 275.967 483.573 278.222 491.135 282.733C498.763 287.177 504.468 292.948 508.249 300.046C512.029 307.143 513.92 314.373 513.92 321.736C513.92 328.569 511.963 333.013 508.05 335.069C504.136 337.059 498.63 338.054 491.533 338.054ZM438.4 322.632H487.652C486.989 313.345 484.468 306.413 480.09 301.837C475.779 297.193 470.074 294.872 462.976 294.872C456.21 294.872 450.639 297.226 446.261 301.936C441.949 306.579 439.329 313.478 438.4 322.632Z" fill="#F2973E"/>
<path d="M41.8863 480.042C41.8863 481.322 41.4971 482.691 40.7186 484.147C39.9652 485.604 38.7975 486.997 37.2155 488.328C35.6586 489.634 33.6873 490.689 31.3017 491.492C28.9161 492.296 26.2291 492.698 23.2409 492.698C16.8876 492.698 11.928 490.852 8.36219 487.161C4.79633 483.444 3.0134 478.472 3.0134 472.244C3.0134 468.026 3.82953 464.297 5.46179 461.057C7.09405 457.818 9.45455 455.319 12.5433 453.561C15.632 451.778 19.3234 450.887 23.6175 450.887C26.2794 450.887 28.7152 451.276 30.925 452.055C33.16 452.833 35.0433 453.837 36.5752 455.068C38.1321 456.298 39.3123 457.617 40.1159 459.023C40.9446 460.404 41.3589 461.697 41.3589 462.903C41.3589 464.133 40.8944 465.175 39.9652 466.029C39.0612 466.883 37.9563 467.31 36.6505 467.31C35.7967 467.31 35.081 467.096 34.5034 466.67C33.951 466.218 33.3232 465.502 32.6201 464.523C31.3645 462.614 30.0461 461.183 28.665 460.228C27.309 459.274 25.5762 458.797 23.4669 458.797C20.4284 458.797 17.98 459.99 16.1217 462.375C14.2634 464.736 13.3343 467.975 13.3343 472.094C13.3343 474.027 13.5729 475.81 14.05 477.442C14.5271 479.05 15.2177 480.431 16.1217 481.586C17.0257 482.716 18.1181 483.582 19.3988 484.185C20.6795 484.763 22.0857 485.051 23.6175 485.051C25.6767 485.051 27.4345 484.574 28.891 483.62C30.3726 482.666 31.6784 481.209 32.8084 479.251C33.4362 478.095 34.1142 477.191 34.8425 476.538C35.5707 475.886 36.4622 475.559 37.5168 475.559C38.7724 475.559 39.8146 476.036 40.6433 476.99C41.4719 477.945 41.8863 478.962 41.8863 480.042Z" fill="#F39241"/>
<path d="M64.7444 486.52V441.922C64.7444 439.863 65.1964 438.306 66.1005 437.251C67.0296 436.197 68.2726 435.669 69.8296 435.669C71.3865 435.669 72.6421 436.197 73.5963 437.251C74.5505 438.281 75.0277 439.838 75.0277 441.922V486.52C75.0277 488.605 74.538 490.174 73.5586 491.229C72.6044 492.258 71.3614 492.773 69.8296 492.773C68.3228 492.773 67.0924 492.233 66.1381 491.153C65.209 490.074 64.7444 488.529 64.7444 486.52Z" fill="#F39241"/>
<path d="M111.785 456.801V486.52C111.785 488.579 111.295 490.136 110.316 491.191C109.337 492.246 108.094 492.773 106.587 492.773C105.08 492.773 103.85 492.233 102.896 491.153C101.966 490.074 101.502 488.529 101.502 486.52V457.102C101.502 455.068 101.966 453.536 102.896 452.507C103.85 451.477 105.08 450.962 106.587 450.962C108.094 450.962 109.337 451.477 110.316 452.507C111.295 453.536 111.785 454.968 111.785 456.801ZM110.015 436.197H115.1C116.381 436.197 117.021 436.385 117.021 436.762C117.021 436.962 116.318 437.779 114.912 439.21C113.505 440.641 112.086 442.01 110.655 443.316C109.224 444.622 108.232 445.413 107.679 445.689C106.248 446.417 104.716 446.781 103.084 446.781C102.004 446.781 101.464 446.467 101.464 445.839C101.464 445.413 101.791 444.672 102.444 443.617L104.139 440.453C105.118 438.62 105.972 437.452 106.7 436.95C107.428 436.448 108.533 436.197 110.015 436.197Z" fill="#F39241"/>
<path d="M147.601 456.65V457.893C149.409 455.507 151.38 453.762 153.515 452.657C155.674 451.527 158.148 450.962 160.935 450.962C163.647 450.962 166.071 451.552 168.205 452.733C170.34 453.913 171.934 455.583 172.989 457.742C173.667 458.998 174.106 460.354 174.307 461.81C174.508 463.267 174.609 465.125 174.609 467.385V486.52C174.609 488.579 174.131 490.136 173.177 491.191C172.248 492.246 171.03 492.773 169.523 492.773C167.992 492.773 166.749 492.233 165.794 491.153C164.84 490.074 164.363 488.529 164.363 486.52V469.382C164.363 465.992 163.886 463.405 162.932 461.622C162.002 459.814 160.132 458.91 157.319 458.91C155.486 458.91 153.816 459.463 152.309 460.567C150.803 461.647 149.698 463.141 148.995 465.05C148.492 466.582 148.241 469.444 148.241 473.638V486.52C148.241 488.605 147.752 490.174 146.772 491.229C145.818 492.258 144.575 492.773 143.043 492.773C141.562 492.773 140.344 492.233 139.389 491.153C138.435 490.074 137.958 488.529 137.958 486.52V456.801C137.958 454.842 138.385 453.385 139.239 452.431C140.093 451.452 141.26 450.962 142.742 450.962C143.646 450.962 144.462 451.176 145.19 451.603C145.918 452.029 146.496 452.67 146.923 453.524C147.375 454.377 147.601 455.42 147.601 456.65Z" fill="#F39241"/>
<path d="M210.989 456.801V486.52C210.989 488.579 210.5 490.136 209.52 491.191C208.541 492.246 207.298 492.773 205.791 492.773C204.285 492.773 203.054 492.233 202.1 491.153C201.171 490.074 200.706 488.529 200.706 486.52V457.102C200.706 455.068 201.171 453.536 202.1 452.507C203.054 451.477 204.285 450.962 205.791 450.962C207.298 450.962 208.541 451.477 209.52 452.507C210.5 453.536 210.989 454.968 210.989 456.801ZM205.904 446.178C204.473 446.178 203.242 445.739 202.213 444.86C201.208 443.981 200.706 442.738 200.706 441.131C200.706 439.675 201.221 438.482 202.25 437.553C203.305 436.598 204.523 436.121 205.904 436.121C207.235 436.121 208.415 436.548 209.445 437.402C210.475 438.256 210.989 439.499 210.989 441.131C210.989 442.713 210.487 443.956 209.483 444.86C208.478 445.739 207.285 446.178 205.904 446.178Z" fill="#F39241"/>
<path d="M274.34 480.042C274.34 481.322 273.951 482.691 273.172 484.147C272.419 485.604 271.251 486.997 269.669 488.328C268.112 489.634 266.141 490.689 263.755 491.492C261.37 492.296 258.683 492.698 255.695 492.698C249.341 492.698 244.382 490.852 240.816 487.161C237.25 483.444 235.467 478.472 235.467 472.244C235.467 468.026 236.283 464.297 237.916 461.057C239.548 457.818 241.908 455.319 244.997 453.561C248.086 451.778 251.777 450.887 256.071 450.887C258.733 450.887 261.169 451.276 263.379 452.055C265.614 452.833 267.497 453.837 269.029 455.068C270.586 456.298 271.766 457.617 272.57 459.023C273.398 460.404 273.813 461.697 273.813 462.903C273.813 464.133 273.348 465.175 272.419 466.029C271.515 466.883 270.41 467.31 269.104 467.31C268.25 467.31 267.535 467.096 266.957 466.67C266.405 466.218 265.777 465.502 265.074 464.523C263.818 462.614 262.5 461.183 261.119 460.228C259.763 459.274 258.03 458.797 255.921 458.797C252.882 458.797 250.434 459.99 248.575 462.375C246.717 464.736 245.788 467.975 245.788 472.094C245.788 474.027 246.027 475.81 246.504 477.442C246.981 479.05 247.671 480.431 248.575 481.586C249.48 482.716 250.572 483.582 251.853 484.185C253.133 484.763 254.54 485.051 256.071 485.051C258.13 485.051 259.888 484.574 261.345 483.62C262.826 482.666 264.132 481.209 265.262 479.251C265.89 478.095 266.568 477.191 267.296 476.538C268.024 475.886 268.916 475.559 269.971 475.559C271.226 475.559 272.268 476.036 273.097 476.99C273.926 477.945 274.34 478.962 274.34 480.042Z" fill="#F39241"/>
<path d="M325.148 486.972C322.661 488.906 320.251 490.362 317.915 491.342C315.605 492.296 313.006 492.773 310.118 492.773C307.481 492.773 305.159 492.258 303.15 491.229C301.166 490.174 299.634 488.755 298.554 486.972C297.474 485.189 296.935 483.256 296.935 481.172C296.935 478.359 297.826 475.961 299.609 473.977C301.392 471.993 303.84 470.662 306.954 469.984C307.607 469.834 309.227 469.495 311.813 468.967C314.4 468.44 316.61 467.963 318.443 467.536C320.301 467.084 322.31 466.544 324.47 465.916C324.344 463.204 323.792 461.22 322.812 459.965C321.858 458.684 319.862 458.044 316.823 458.044C314.211 458.044 312.24 458.408 310.909 459.136C309.603 459.864 308.473 460.957 307.519 462.413C306.59 463.87 305.925 464.836 305.523 465.314C305.146 465.766 304.317 465.992 303.037 465.992C301.882 465.992 300.877 465.627 300.023 464.899C299.195 464.146 298.78 463.192 298.78 462.036C298.78 460.228 299.421 458.471 300.701 456.763C301.982 455.055 303.978 453.649 306.69 452.544C309.403 451.439 312.78 450.887 316.823 450.887C321.343 450.887 324.896 451.427 327.483 452.507C330.069 453.561 331.89 455.244 332.945 457.554C334.025 459.864 334.564 462.928 334.564 466.745C334.564 469.156 334.552 471.202 334.527 472.885C334.527 474.567 334.514 476.438 334.489 478.497C334.489 480.431 334.803 482.452 335.431 484.562C336.084 486.646 336.41 487.989 336.41 488.592C336.41 489.647 335.908 490.614 334.903 491.492C333.924 492.346 332.807 492.773 331.551 492.773C330.496 492.773 329.454 492.283 328.425 491.304C327.395 490.3 326.303 488.856 325.148 486.972ZM324.47 472.094C322.963 472.646 320.766 473.236 317.878 473.864C315.015 474.467 313.031 474.919 311.926 475.22C310.821 475.496 309.767 476.061 308.762 476.915C307.758 477.744 307.255 478.912 307.255 480.418C307.255 481.975 307.846 483.306 309.026 484.411C310.206 485.491 311.75 486.031 313.659 486.031C315.693 486.031 317.564 485.591 319.271 484.712C321.004 483.808 322.272 482.653 323.076 481.247C324.005 479.69 324.47 477.129 324.47 473.563V472.094Z" fill="#F39241"/>
<path d="M402.362 457.366L410.686 480.72L419.651 456.349C420.354 454.39 421.045 453.009 421.723 452.205C422.401 451.377 423.43 450.962 424.811 450.962C426.117 450.962 427.222 451.402 428.126 452.281C429.055 453.159 429.52 454.176 429.52 455.332C429.52 455.784 429.432 456.311 429.256 456.914C429.106 457.516 428.917 458.081 428.691 458.609C428.49 459.136 428.252 459.739 427.976 460.417L418.107 484.901C417.83 485.604 417.466 486.495 417.014 487.575C416.587 488.655 416.098 489.584 415.545 490.362C415.018 491.116 414.352 491.706 413.549 492.133C412.77 492.56 411.816 492.773 410.686 492.773C409.23 492.773 408.062 492.447 407.183 491.794C406.329 491.116 405.689 490.388 405.262 489.609C404.86 488.806 404.17 487.236 403.19 484.901L393.397 460.68C393.171 460.078 392.932 459.475 392.681 458.872C392.455 458.27 392.254 457.654 392.078 457.027C391.928 456.399 391.852 455.859 391.852 455.407C391.852 454.704 392.066 454.013 392.493 453.335C392.92 452.632 393.51 452.067 394.263 451.64C395.016 451.188 395.833 450.962 396.711 450.962C398.419 450.962 399.587 451.452 400.215 452.431C400.867 453.411 401.583 455.055 402.362 457.366Z" fill="#F39241"/>
<path d="M480.365 474.391H460.251C460.276 476.727 460.74 478.786 461.644 480.569C462.573 482.352 463.791 483.695 465.298 484.599C466.83 485.503 468.512 485.955 470.345 485.955C471.576 485.955 472.693 485.817 473.698 485.541C474.727 485.24 475.719 484.788 476.674 484.185C477.628 483.557 478.507 482.892 479.31 482.189C480.114 481.485 481.156 480.531 482.437 479.326C482.964 478.874 483.717 478.648 484.697 478.648C485.751 478.648 486.605 478.937 487.258 479.514C487.911 480.092 488.238 480.908 488.238 481.963C488.238 482.892 487.873 483.984 487.145 485.24C486.417 486.47 485.312 487.663 483.83 488.818C482.374 489.948 480.528 490.89 478.293 491.643C476.083 492.396 473.535 492.773 470.647 492.773C464.042 492.773 458.907 490.89 455.241 487.123C451.574 483.356 449.741 478.246 449.741 471.792C449.741 468.754 450.193 465.941 451.097 463.355C452.001 460.743 453.32 458.508 455.052 456.65C456.785 454.792 458.92 453.373 461.456 452.394C463.992 451.389 466.805 450.887 469.893 450.887C473.911 450.887 477.352 451.741 480.214 453.448C483.102 455.131 485.262 457.315 486.693 460.002C488.125 462.689 488.84 465.427 488.84 468.214C488.84 470.8 488.099 472.483 486.618 473.261C485.136 474.015 483.052 474.391 480.365 474.391ZM460.251 468.553H478.896C478.645 465.037 477.691 462.413 476.033 460.68C474.401 458.923 472.241 458.044 469.554 458.044C466.993 458.044 464.884 458.935 463.226 460.718C461.594 462.476 460.602 465.088 460.251 468.553Z" fill="#F39241"/>
<path d="M513.921 451.866H515.051V445.689C515.051 444.031 515.088 442.738 515.164 441.809C515.264 440.855 515.515 440.039 515.917 439.361C516.319 438.657 516.896 438.092 517.65 437.666C518.403 437.214 519.244 436.988 520.174 436.988C521.479 436.988 522.66 437.477 523.714 438.457C524.417 439.109 524.857 439.913 525.033 440.867C525.234 441.796 525.334 443.127 525.334 444.86V451.866H529.101C530.557 451.866 531.662 452.218 532.415 452.921C533.194 453.599 533.583 454.478 533.583 455.558C533.583 456.939 533.031 457.906 531.926 458.458C530.846 459.01 529.289 459.287 527.255 459.287H525.334V478.196C525.334 479.803 525.384 481.046 525.485 481.925C525.61 482.779 525.912 483.482 526.389 484.034C526.891 484.562 527.694 484.825 528.799 484.825C529.402 484.825 530.218 484.725 531.248 484.524C532.277 484.298 533.081 484.185 533.658 484.185C534.487 484.185 535.228 484.524 535.881 485.202C536.559 485.855 536.898 486.671 536.898 487.65C536.898 489.308 535.994 490.576 534.186 491.455C532.378 492.334 529.779 492.773 526.389 492.773C523.174 492.773 520.739 492.233 519.081 491.153C517.424 490.074 516.331 488.579 515.804 486.671C515.302 484.763 515.051 482.214 515.051 479.025V459.287H513.695C512.213 459.287 511.083 458.935 510.305 458.232C509.526 457.529 509.137 456.637 509.137 455.558C509.137 454.478 509.539 453.599 510.342 452.921C511.171 452.218 512.364 451.866 513.921 451.866Z" fill="#F39241"/>
<path d="M585.219 474.391H565.105C565.13 476.727 565.595 478.786 566.499 480.569C567.428 482.352 568.646 483.695 570.152 484.599C571.684 485.503 573.367 485.955 575.2 485.955C576.43 485.955 577.548 485.817 578.552 485.541C579.582 485.24 580.574 484.788 581.528 484.185C582.482 483.557 583.361 482.892 584.165 482.189C584.968 481.485 586.01 480.531 587.291 479.326C587.818 478.874 588.572 478.648 589.551 478.648C590.606 478.648 591.46 478.937 592.112 479.514C592.765 480.092 593.092 480.908 593.092 481.963C593.092 482.892 592.728 483.984 591.999 485.24C591.271 486.47 590.166 487.663 588.685 488.818C587.228 489.948 585.383 490.89 583.148 491.643C580.938 492.396 578.389 492.773 575.501 492.773C568.897 492.773 563.761 490.89 560.095 487.123C556.429 483.356 554.596 478.246 554.596 471.792C554.596 468.754 555.048 465.941 555.952 463.355C556.856 460.743 558.174 458.508 559.907 456.65C561.639 454.792 563.774 453.373 566.31 452.394C568.847 451.389 571.659 450.887 574.748 450.887C578.766 450.887 582.206 451.741 585.069 453.448C587.957 455.131 590.116 457.315 591.547 460.002C592.979 462.689 593.695 465.427 593.695 468.214C593.695 470.8 592.954 472.483 591.472 473.261C589.991 474.015 587.906 474.391 585.219 474.391ZM565.105 468.553H583.75C583.499 465.037 582.545 462.413 580.888 460.68C579.255 458.923 577.096 458.044 574.409 458.044C571.847 458.044 569.738 458.935 568.081 460.718C566.448 462.476 565.456 465.088 565.105 468.553Z" fill="#F39241"/>
<path d="M628.418 477.932V486.52C628.418 488.605 627.928 490.174 626.949 491.229C625.97 492.258 624.727 492.773 623.22 492.773C621.738 492.773 620.52 492.246 619.566 491.191C618.612 490.136 618.135 488.579 618.135 486.52V457.893C618.135 453.272 619.805 450.962 623.144 450.962C624.852 450.962 626.083 451.502 626.836 452.582C627.589 453.662 628.004 455.256 628.079 457.366C629.309 455.256 630.565 453.662 631.846 452.582C633.151 451.502 634.884 450.962 637.044 450.962C639.203 450.962 641.3 451.502 643.334 452.582C645.368 453.662 646.385 455.093 646.385 456.876C646.385 458.132 645.946 459.174 645.067 460.002C644.213 460.806 643.284 461.208 642.28 461.208C641.903 461.208 640.986 460.982 639.53 460.53C638.098 460.053 636.83 459.814 635.725 459.814C634.219 459.814 632.988 460.216 632.034 461.019C631.08 461.798 630.339 462.966 629.812 464.523C629.284 466.079 628.92 467.938 628.719 470.097C628.518 472.232 628.418 474.843 628.418 477.932Z" fill="#F39241"/>
<path d="M678.133 456.801V486.52C678.133 488.579 677.643 490.136 676.664 491.191C675.685 492.246 674.442 492.773 672.935 492.773C671.428 492.773 670.198 492.233 669.244 491.153C668.314 490.074 667.85 488.529 667.85 486.52V457.102C667.85 455.068 668.314 453.536 669.244 452.507C670.198 451.477 671.428 450.962 672.935 450.962C674.442 450.962 675.685 451.477 676.664 452.507C677.643 453.536 678.133 454.968 678.133 456.801ZM673.048 446.178C671.617 446.178 670.386 445.739 669.357 444.86C668.352 443.981 667.85 442.738 667.85 441.131C667.85 439.675 668.365 438.482 669.394 437.553C670.449 436.598 671.667 436.121 673.048 436.121C674.379 436.121 675.559 436.548 676.589 437.402C677.618 438.256 678.133 439.499 678.133 441.131C678.133 442.713 677.631 443.956 676.626 444.86C675.622 445.739 674.429 446.178 673.048 446.178Z" fill="#F39241"/>
<path d="M713.949 456.65V457.893C715.757 455.507 717.728 453.762 719.863 452.657C722.022 451.527 724.496 450.962 727.283 450.962C729.995 450.962 732.418 451.552 734.553 452.733C736.687 453.913 738.282 455.583 739.337 457.742C740.015 458.998 740.454 460.354 740.655 461.81C740.856 463.267 740.956 465.125 740.956 467.385V486.52C740.956 488.579 740.479 490.136 739.525 491.191C738.596 492.246 737.378 492.773 735.871 492.773C734.34 492.773 733.096 492.233 732.142 491.153C731.188 490.074 730.711 488.529 730.711 486.52V469.382C730.711 465.992 730.234 463.405 729.28 461.622C728.35 459.814 726.48 458.91 723.667 458.91C721.834 458.91 720.164 459.463 718.657 460.567C717.151 461.647 716.046 463.141 715.343 465.05C714.84 466.582 714.589 469.444 714.589 473.638V486.52C714.589 488.605 714.1 490.174 713.12 491.229C712.166 492.258 710.923 492.773 709.391 492.773C707.909 492.773 706.692 492.233 705.737 491.153C704.783 490.074 704.306 488.529 704.306 486.52V456.801C704.306 454.842 704.733 453.385 705.587 452.431C706.44 451.452 707.608 450.962 709.09 450.962C709.994 450.962 710.81 451.176 711.538 451.603C712.266 452.029 712.844 452.67 713.271 453.524C713.723 454.377 713.949 455.42 713.949 456.65Z" fill="#F39241"/>
<path d="M793.045 486.972C790.559 488.906 788.148 490.362 785.812 491.342C783.502 492.296 780.903 492.773 778.015 492.773C775.379 492.773 773.056 492.258 771.047 491.229C769.063 490.174 767.531 488.755 766.451 486.972C765.372 485.189 764.832 483.256 764.832 481.172C764.832 478.359 765.723 475.961 767.506 473.977C769.289 471.993 771.737 470.662 774.851 469.984C775.504 469.834 777.124 469.495 779.71 468.967C782.297 468.44 784.507 467.963 786.34 467.536C788.198 467.084 790.207 466.544 792.367 465.916C792.241 463.204 791.689 461.22 790.709 459.965C789.755 458.684 787.759 458.044 784.72 458.044C782.108 458.044 780.137 458.408 778.806 459.136C777.5 459.864 776.37 460.957 775.416 462.413C774.487 463.87 773.822 464.836 773.42 465.314C773.043 465.766 772.214 465.992 770.934 465.992C769.779 465.992 768.774 465.627 767.92 464.899C767.092 464.146 766.677 463.192 766.677 462.036C766.677 460.228 767.318 458.471 768.598 456.763C769.879 455.055 771.875 453.649 774.587 452.544C777.3 451.439 780.677 450.887 784.72 450.887C789.24 450.887 792.793 451.427 795.38 452.507C797.966 453.561 799.787 455.244 800.842 457.554C801.922 459.864 802.461 462.928 802.461 466.745C802.461 469.156 802.449 471.202 802.424 472.885C802.424 474.567 802.411 476.438 802.386 478.497C802.386 480.431 802.7 482.452 803.328 484.562C803.981 486.646 804.307 487.989 804.307 488.592C804.307 489.647 803.805 490.614 802.8 491.492C801.821 492.346 800.704 492.773 799.448 492.773C798.393 492.773 797.351 492.283 796.322 491.304C795.292 490.3 794.2 488.856 793.045 486.972ZM792.367 472.094C790.86 472.646 788.663 473.236 785.775 473.864C782.912 474.467 780.928 474.919 779.823 475.22C778.718 475.496 777.664 476.061 776.659 476.915C775.655 477.744 775.153 478.912 775.153 480.418C775.153 481.975 775.743 483.306 776.923 484.411C778.103 485.491 779.647 486.031 781.556 486.031C783.59 486.031 785.461 485.591 787.168 484.712C788.901 483.808 790.169 482.653 790.973 481.247C791.902 479.69 792.367 477.129 792.367 473.563V472.094ZM786.189 436.197H791.274C792.555 436.197 793.195 436.385 793.195 436.762C793.195 436.962 792.492 437.779 791.086 439.21C789.68 440.641 788.261 442.01 786.829 443.316C785.398 444.622 784.406 445.413 783.854 445.689C782.422 446.417 780.891 446.781 779.258 446.781C778.178 446.781 777.639 446.467 777.639 445.839C777.639 445.413 777.965 444.672 778.618 443.617L780.313 440.453C781.292 438.62 782.146 437.452 782.874 436.95C783.603 436.448 784.708 436.197 786.189 436.197Z" fill="#F39241"/>
<path d="M838.955 477.932V486.52C838.955 488.605 838.466 490.174 837.486 491.229C836.507 492.258 835.264 492.773 833.757 492.773C832.276 492.773 831.058 492.246 830.103 491.191C829.149 490.136 828.672 488.579 828.672 486.52V457.893C828.672 453.272 830.342 450.962 833.682 450.962C835.389 450.962 836.62 451.502 837.373 452.582C838.127 453.662 838.541 455.256 838.616 457.366C839.847 455.256 841.102 453.662 842.383 452.582C843.689 451.502 845.422 450.962 847.581 450.962C849.741 450.962 851.838 451.502 853.872 452.582C855.906 453.662 856.923 455.093 856.923 456.876C856.923 458.132 856.483 459.174 855.604 460.002C854.75 460.806 853.821 461.208 852.817 461.208C852.44 461.208 851.524 460.982 850.067 460.53C848.636 460.053 847.368 459.814 846.263 459.814C844.756 459.814 843.526 460.216 842.571 461.019C841.617 461.798 840.876 462.966 840.349 464.523C839.822 466.079 839.457 467.938 839.257 470.097C839.056 472.232 838.955 474.843 838.955 477.932Z" fill="#F39241"/>
<path d="M888.67 456.801V486.52C888.67 488.579 888.181 490.136 887.201 491.191C886.222 492.246 884.979 492.773 883.472 492.773C881.966 492.773 880.735 492.233 879.781 491.153C878.852 490.074 878.387 488.529 878.387 486.52V457.102C878.387 455.068 878.852 453.536 879.781 452.507C880.735 451.477 881.966 450.962 883.472 450.962C884.979 450.962 886.222 451.477 887.201 452.507C888.181 453.536 888.67 454.968 888.67 456.801ZM883.585 446.178C882.154 446.178 880.923 445.739 879.894 444.86C878.889 443.981 878.387 442.738 878.387 441.131C878.387 439.675 878.902 438.482 879.932 437.553C880.986 436.598 882.204 436.121 883.585 436.121C884.916 436.121 886.096 436.548 887.126 437.402C888.156 438.256 888.67 439.499 888.67 441.131C888.67 442.713 888.168 443.956 887.164 444.86C886.159 445.739 884.966 446.178 883.585 446.178Z" fill="#F39241"/>
<path d="M941.135 486.972C938.649 488.906 936.238 490.362 933.903 491.342C931.593 492.296 928.994 492.773 926.106 492.773C923.469 492.773 921.146 492.258 919.137 491.229C917.154 490.174 915.622 488.755 914.542 486.972C913.462 485.189 912.922 483.256 912.922 481.172C912.922 478.359 913.814 475.961 915.597 473.977C917.38 471.993 919.828 470.662 922.942 469.984C923.595 469.834 925.214 469.495 927.801 468.967C930.387 468.44 932.597 467.963 934.43 467.536C936.289 467.084 938.298 466.544 940.457 465.916C940.332 463.204 939.779 461.22 938.8 459.965C937.846 458.684 935.849 458.044 932.811 458.044C930.199 458.044 928.228 458.408 926.897 459.136C925.591 459.864 924.461 460.957 923.507 462.413C922.578 463.87 921.912 464.836 921.51 465.314C921.134 465.766 920.305 465.992 919.024 465.992C917.869 465.992 916.865 465.627 916.011 464.899C915.182 464.146 914.768 463.192 914.768 462.036C914.768 460.228 915.408 458.471 916.689 456.763C917.97 455.055 919.966 453.649 922.678 452.544C925.39 451.439 928.768 450.887 932.811 450.887C937.331 450.887 940.884 451.427 943.471 452.507C946.057 453.561 947.878 455.244 948.932 457.554C950.012 459.864 950.552 462.928 950.552 466.745C950.552 469.156 950.54 471.202 950.514 472.885C950.514 474.567 950.502 476.438 950.477 478.497C950.477 480.431 950.791 482.452 951.418 484.562C952.071 486.646 952.398 487.989 952.398 488.592C952.398 489.647 951.896 490.614 950.891 491.492C949.912 492.346 948.794 492.773 947.539 492.773C946.484 492.773 945.442 492.283 944.412 491.304C943.383 490.3 942.29 488.856 941.135 486.972ZM940.457 472.094C938.951 472.646 936.753 473.236 933.865 473.864C931.003 474.467 929.019 474.919 927.914 475.22C926.809 475.496 925.754 476.061 924.75 476.915C923.745 477.744 923.243 478.912 923.243 480.418C923.243 481.975 923.833 483.306 925.014 484.411C926.194 485.491 927.738 486.031 929.647 486.031C931.681 486.031 933.552 485.591 935.259 484.712C936.992 483.808 938.26 482.653 939.064 481.247C939.993 479.69 940.457 477.129 940.457 473.563V472.094Z" fill="#F39241"/>
</svg>
